<?xml version="1.0" encoding="UTF-8"?>
<svg xmlns="http://www.w3.org/2000/svg" xmlns:xlink="http://www.w3.org/1999/xlink" width="20pt" height="20pt" viewBox="0 0 20 20" version="1.1">
<g id="surface1">
<path style=" stroke:none;fill-rule:nonzero;fill:rgb(60.784314%,0%,100%);fill-opacity:1;" d="M 4.894531 1.007812 C 4.507812 1.0625 3.8125 1.285156 3.242188 1.535156 C 2.980469 1.648438 2.128906 2.351562 1.769531 2.75 C 1.328125 3.242188 0.914062 4.207031 0.820312 4.941406 C 0.777344 5.300781 0.855469 6.070312 1.078125 7.464844 C 1.179688 8.085938 1.484375 9.050781 1.75 9.570312 C 2.035156 10.136719 2.820312 11.394531 3.199219 11.894531 C 3.863281 12.765625 4.191406 13.1875 4.421875 13.429688 C 4.550781 13.5625 4.828125 13.886719 5.035156 14.144531 C 5.242188 14.398438 5.5625 14.765625 5.75 14.964844 C 5.9375 15.15625 6.257812 15.527344 6.464844 15.785156 C 6.671875 16.042969 6.984375 16.371094 7.171875 16.519531 C 7.355469 16.679688 7.679688 17.015625 7.886719 17.269531 C 8.492188 18.027344 9.085938 18.601562 9.398438 18.714844 C 9.9375 18.921875 10.722656 18.707031 11.179688 18.242188 C 11.335938 18.078125 11.613281 17.757812 11.808594 17.527344 C 12.679688 16.441406 15.40625 13.457031 16.035156 12.894531 C 16.398438 12.5625 17.757812 10.742188 18.101562 10.121094 C 18.515625 9.371094 18.777344 8.8125 18.808594 8.644531 C 18.828125 8.542969 18.886719 8.285156 18.949219 8.070312 C 19.171875 7.222656 19.214844 6.980469 19.214844 6.464844 C 19.214844 5.972656 19.0625 5.257812 18.765625 4.285156 C 18.519531 3.507812 17.707031 2.542969 16.878906 2.058594 C 15.585938 1.292969 15.019531 1.085938 14.070312 1.019531 C 13.515625 0.984375 13.40625 1 12.785156 1.214844 C 11.8125 1.550781 11.300781 1.835938 10.585938 2.441406 C 10.207031 2.765625 9.863281 2.699219 9.257812 2.1875 C 8.707031 1.714844 7.636719 1.179688 7.085938 1.101562 C 6.769531 1.058594 5.472656 0.9375 5.394531 0.941406 C 5.355469 0.941406 5.128906 0.972656 4.894531 1.007812 Z M 6.957031 1.894531 C 8.070312 2.09375 8.886719 2.664062 9.636719 3.792969 L 10.0625 4.421875 L 10.449219 3.835938 C 11.234375 2.65625 12.058594 2.09375 13.265625 1.878906 C 14.707031 1.628906 16.101562 2.09375 17.105469 3.15625 C 17.941406 4.035156 18.335938 5.164062 18.257812 6.398438 C 18.105469 8.636719 16.898438 10.894531 14.222656 13.941406 C 13.121094 15.191406 10.199219 18.148438 10.0625 18.144531 C 9.929688 18.144531 7 15.1875 5.957031 14 C 4 11.769531 2.878906 10.058594 2.300781 8.414062 C 1.386719 5.835938 1.9375 3.714844 3.8125 2.492188 C 4.757812 1.878906 5.777344 1.679688 6.957031 1.894531 Z M 6.957031 1.894531 "/>
<path style=" stroke:none;fill-rule:nonzero;fill:rgb(60.784314%,0%,100%);fill-opacity:1;" d="M 5.1875 2.472656 C 3.921875 2.777344 2.820312 3.878906 2.492188 5.171875 C 2.355469 5.722656 2.449219 7.0625 2.671875 7.820312 C 3.335938 10.042969 4.980469 12.320312 8.449219 15.820312 L 10.070312 17.464844 L 11.671875 15.84375 C 15.207031 12.25 16.792969 10.035156 17.464844 7.75 C 17.691406 6.972656 17.769531 5.878906 17.648438 5.265625 C 17.429688 4.234375 16.648438 3.230469 15.691406 2.765625 C 15.035156 2.4375 14.4375 2.328125 13.6875 2.378906 C 12.320312 2.472656 11.480469 3.09375 10.570312 4.664062 C 10.113281 5.472656 10.035156 5.464844 9.5 4.570312 C 9 3.742188 8.394531 3.0625 7.898438 2.785156 C 7.199219 2.386719 6.078125 2.257812 5.1875 2.472656 Z M 7.035156 3.5 C 7.277344 3.621094 7.707031 3.921875 7.992188 4.164062 C 8.464844 4.5625 8.535156 4.65625 8.714844 5.128906 C 8.949219 5.742188 9.078125 5.898438 9.464844 6.078125 C 10.308594 6.464844 11.007812 6.070312 11.570312 4.886719 C 11.835938 4.335938 12.191406 3.980469 12.75 3.714844 C 13.328125 3.441406 13.785156 3.335938 14.234375 3.371094 C 15.113281 3.441406 16.222656 4.234375 16.621094 5.070312 C 16.785156 5.414062 16.8125 5.578125 16.835938 6.335938 C 16.855469 7.105469 16.835938 7.265625 16.679688 7.765625 C 16.378906 8.699219 15.136719 10.527344 13.949219 11.765625 C 13.644531 12.085938 13.058594 12.699219 12.644531 13.121094 C 12.230469 13.542969 11.6875 14.136719 11.429688 14.429688 C 10.59375 15.386719 10.265625 15.75 10.179688 15.800781 C 10.136719 15.828125 9.972656 15.820312 9.820312 15.785156 C 9.527344 15.722656 8.984375 15.199219 7.707031 13.75 C 7.394531 13.394531 7.0625 13.027344 6.980469 12.929688 C 6.015625 11.855469 4.644531 10.15625 4.644531 10.035156 C 4.644531 10.015625 4.484375 9.75 4.292969 9.457031 C 3.585938 8.386719 3.113281 6.742188 3.15625 5.5 C 3.179688 4.894531 3.207031 4.777344 3.414062 4.421875 C 3.6875 3.9375 4 3.6875 4.558594 3.492188 C 5.519531 3.15625 6.355469 3.15625 7.035156 3.5 Z M 7.035156 3.5 "/>
</g>
</svg>
