<?xml version="1.0" encoding="UTF-8"?>
<svg xmlns="http://www.w3.org/2000/svg" xmlns:xlink="http://www.w3.org/1999/xlink" width="20pt" height="20pt" viewBox="0 0 20 20" version="1.1">
<g id="surface1">
<path style=" stroke:none;fill-rule:nonzero;fill:rgb(60.784314%,0%,100%);fill-opacity:1;" d="M 4.894531 1.007812 C 4.507812 1.0625 3.8125 1.285156 3.242188 1.535156 C 2.980469 1.648438 2.128906 2.351562 1.769531 2.75 C 1.328125 3.242188 0.914062 4.207031 0.820312 4.941406 C 0.777344 5.300781 0.855469 6.070312 1.078125 7.464844 C 1.179688 8.085938 1.484375 9.050781 1.75 9.570312 C 2.035156 10.136719 2.820312 11.394531 3.199219 11.894531 C 3.863281 12.765625 4.191406 13.1875 4.421875 13.429688 C 4.550781 13.5625 4.828125 13.886719 5.035156 14.144531 C 5.242188 14.398438 5.5625 14.765625 5.75 14.964844 C 5.9375 15.15625 6.257812 15.527344 6.464844 15.785156 C 6.671875 16.042969 6.984375 16.371094 7.171875 16.519531 C 7.355469 16.679688 7.679688 17.015625 7.886719 17.269531 C 8.492188 18.027344 9.085938 18.601562 9.398438 18.714844 C 9.9375 18.921875 10.722656 18.707031 11.179688 18.242188 C 11.335938 18.078125 11.613281 17.757812 11.808594 17.527344 C 12.679688 16.441406 15.40625 13.457031 16.035156 12.894531 C 16.398438 12.5625 17.757812 10.742188 18.101562 10.121094 C 18.515625 9.363281 18.777344 8.8125 18.808594 8.636719 C 18.84375 8.472656 18.90625 8.214844 19.148438 7.277344 C 19.3125 6.621094 19.191406 5.664062 18.765625 4.285156 C 18.519531 3.507812 17.707031 2.542969 16.878906 2.058594 C 15.472656 1.230469 14.921875 1.042969 13.894531 1.042969 C 13.269531 1.035156 13.113281 1.0625 12.679688 1.242188 C 12.40625 1.351562 12.085938 1.480469 11.972656 1.519531 C 11.734375 1.605469 10.9375 2.144531 10.585938 2.441406 C 10.207031 2.765625 9.863281 2.699219 9.257812 2.1875 C 8.6875 1.699219 7.6875 1.199219 7.070312 1.101562 C 6.878906 1.070312 5.464844 0.9375 5.394531 0.941406 C 5.355469 0.941406 5.128906 0.972656 4.894531 1.007812 Z M 6.957031 1.894531 C 8.070312 2.09375 8.886719 2.664062 9.636719 3.792969 L 10.0625 4.421875 L 10.449219 3.835938 C 11.234375 2.65625 12.058594 2.09375 13.265625 1.878906 C 14.707031 1.628906 16.101562 2.09375 17.105469 3.15625 C 17.941406 4.035156 18.335938 5.164062 18.257812 6.398438 C 18.105469 8.636719 16.898438 10.894531 14.222656 13.941406 C 13.121094 15.191406 10.199219 18.148438 10.0625 18.144531 C 9.929688 18.144531 7 15.1875 5.957031 14 C 4 11.769531 2.878906 10.058594 2.300781 8.414062 C 1.386719 5.835938 1.9375 3.714844 3.8125 2.492188 C 4.757812 1.878906 5.777344 1.679688 6.957031 1.894531 Z M 6.957031 1.894531 "/>
<path style=" stroke:none;fill-rule:nonzero;fill:rgb(60.784314%,0%,100%);fill-opacity:1;" d="M 5.1875 2.472656 C 4.207031 2.707031 3.242188 3.480469 2.808594 4.378906 C 2.679688 4.644531 2.570312 4.914062 2.570312 4.984375 C 2.570312 5.058594 2.535156 5.148438 2.5 5.1875 C 2.457031 5.230469 2.40625 5.5625 2.386719 5.9375 C 2.351562 6.535156 2.363281 6.6875 2.5625 7.398438 C 2.898438 8.636719 3.1875 9.277344 3.894531 10.429688 C 4.535156 11.457031 5.84375 13.121094 6.792969 14.113281 C 7.027344 14.355469 7.222656 14.585938 7.230469 14.613281 C 7.230469 14.648438 7.878906 15.308594 8.65625 16.070312 L 10.078125 17.464844 L 11.558594 15.964844 C 14.707031 12.765625 16.242188 10.765625 17.144531 8.714844 C 17.234375 8.5 17.3125 8.308594 17.320312 8.285156 C 17.398438 7.929688 17.449219 7.792969 17.492188 7.8125 C 17.519531 7.835938 17.542969 7.792969 17.550781 7.730469 C 17.550781 7.664062 17.585938 7.378906 17.636719 7.105469 C 17.878906 5.527344 17.5625 4.378906 16.628906 3.4375 C 15.855469 2.664062 14.835938 2.300781 13.6875 2.378906 C 12.320312 2.472656 11.480469 3.09375 10.570312 4.664062 C 10.113281 5.472656 10.035156 5.464844 9.5 4.570312 C 9 3.742188 8.394531 3.0625 7.898438 2.785156 C 7.199219 2.386719 6.078125 2.257812 5.1875 2.472656 Z M 5.1875 2.472656 "/>
</g>
</svg>
